<mxfile host="app.diagrams.net" agent="Mozilla/5.0 (X11; Linux x86_64) AppleWebKit/537.36 (KHTML, like Gecko) Chrome/131.0.0.0 Safari/537.36" version="24.8.6">
  <diagram name="Page-1" id="PUTQy41rG5QLkWXZzwTB">
    <mxGraphModel dx="1434" dy="754" grid="1" gridSize="10" guides="1" tooltips="1" connect="1" arrows="1" fold="1" page="1" pageScale="1" pageWidth="850" pageHeight="1100" math="0" shadow="0">
      <root>
        <mxCell id="0" />
        <mxCell id="1" parent="0" />
        <mxCell id="hYyw0Vd0KBYQ9iKZKlPS-1" value="&lt;div&gt;&lt;br&gt;&lt;/div&gt;&lt;div&gt;Traefik&amp;nbsp;&lt;/div&gt;" style="rounded=0;whiteSpace=wrap;html=1;" vertex="1" parent="1">
          <mxGeometry x="320" y="170" width="120" height="60" as="geometry" />
        </mxCell>
        <mxCell id="hYyw0Vd0KBYQ9iKZKlPS-4" value="" style="edgeStyle=orthogonalEdgeStyle;rounded=0;orthogonalLoop=1;jettySize=auto;html=1;" edge="1" parent="1" source="hYyw0Vd0KBYQ9iKZKlPS-5" target="hYyw0Vd0KBYQ9iKZKlPS-1">
          <mxGeometry relative="1" as="geometry">
            <mxPoint x="362.5" y="110" as="sourcePoint" />
          </mxGeometry>
        </mxCell>
        <mxCell id="hYyw0Vd0KBYQ9iKZKlPS-5" value="dev.wuxin.com&lt;br&gt;test.wuxin.com" style="text;html=1;align=center;verticalAlign=middle;whiteSpace=wrap;rounded=0;" vertex="1" parent="1">
          <mxGeometry x="332.5" y="95" width="60" height="30" as="geometry" />
        </mxCell>
        <mxCell id="hYyw0Vd0KBYQ9iKZKlPS-6" value="" style="whiteSpace=wrap;html=1;aspect=fixed;" vertex="1" parent="1">
          <mxGeometry y="320" width="300" height="300" as="geometry" />
        </mxCell>
        <mxCell id="hYyw0Vd0KBYQ9iKZKlPS-7" value="" style="whiteSpace=wrap;html=1;aspect=fixed;" vertex="1" parent="1">
          <mxGeometry x="470" y="330" width="290" height="290" as="geometry" />
        </mxCell>
        <mxCell id="hYyw0Vd0KBYQ9iKZKlPS-8" value="dev 网络" style="text;html=1;align=center;verticalAlign=middle;whiteSpace=wrap;rounded=0;" vertex="1" parent="1">
          <mxGeometry x="10" y="290" width="60" height="30" as="geometry" />
        </mxCell>
        <mxCell id="hYyw0Vd0KBYQ9iKZKlPS-9" value="test 网络" style="text;html=1;align=center;verticalAlign=middle;whiteSpace=wrap;rounded=0;" vertex="1" parent="1">
          <mxGeometry x="470" y="300" width="60" height="30" as="geometry" />
        </mxCell>
        <mxCell id="hYyw0Vd0KBYQ9iKZKlPS-10" style="edgeStyle=orthogonalEdgeStyle;rounded=0;orthogonalLoop=1;jettySize=auto;html=1;exitX=0.5;exitY=1;exitDx=0;exitDy=0;entryX=0.422;entryY=-0.006;entryDx=0;entryDy=0;entryPerimeter=0;" edge="1" parent="1" source="hYyw0Vd0KBYQ9iKZKlPS-1" target="hYyw0Vd0KBYQ9iKZKlPS-6">
          <mxGeometry relative="1" as="geometry">
            <Array as="points">
              <mxPoint x="380" y="280" />
              <mxPoint x="127" y="280" />
            </Array>
          </mxGeometry>
        </mxCell>
        <mxCell id="hYyw0Vd0KBYQ9iKZKlPS-11" style="edgeStyle=orthogonalEdgeStyle;rounded=0;orthogonalLoop=1;jettySize=auto;html=1;exitX=0.5;exitY=1;exitDx=0;exitDy=0;entryX=0.522;entryY=0.006;entryDx=0;entryDy=0;entryPerimeter=0;" edge="1" parent="1" source="hYyw0Vd0KBYQ9iKZKlPS-1" target="hYyw0Vd0KBYQ9iKZKlPS-7">
          <mxGeometry relative="1" as="geometry" />
        </mxCell>
        <mxCell id="hYyw0Vd0KBYQ9iKZKlPS-12" value="商品服务&lt;br&gt;8080" style="ellipse;whiteSpace=wrap;html=1;aspect=fixed;" vertex="1" parent="1">
          <mxGeometry x="40" y="490" width="80" height="80" as="geometry" />
        </mxCell>
        <mxCell id="hYyw0Vd0KBYQ9iKZKlPS-13" value="订单服务&lt;br&gt;8080" style="ellipse;whiteSpace=wrap;html=1;aspect=fixed;" vertex="1" parent="1">
          <mxGeometry x="160" y="490" width="80" height="80" as="geometry" />
        </mxCell>
        <mxCell id="hYyw0Vd0KBYQ9iKZKlPS-14" value="nacos&lt;br&gt;8080" style="ellipse;whiteSpace=wrap;html=1;aspect=fixed;" vertex="1" parent="1">
          <mxGeometry x="40" y="370" width="80" height="80" as="geometry" />
        </mxCell>
        <mxCell id="hYyw0Vd0KBYQ9iKZKlPS-15" value="gateway_dev&lt;br&gt;8080" style="ellipse;whiteSpace=wrap;html=1;aspect=fixed;" vertex="1" parent="1">
          <mxGeometry x="160" y="370" width="80" height="80" as="geometry" />
        </mxCell>
        <mxCell id="hYyw0Vd0KBYQ9iKZKlPS-17" value="nacos&lt;br&gt;8080" style="ellipse;whiteSpace=wrap;html=1;aspect=fixed;" vertex="1" parent="1">
          <mxGeometry x="530" y="360" width="80" height="80" as="geometry" />
        </mxCell>
        <mxCell id="hYyw0Vd0KBYQ9iKZKlPS-18" value="gateway_test&lt;br&gt;8080" style="ellipse;whiteSpace=wrap;html=1;aspect=fixed;" vertex="1" parent="1">
          <mxGeometry x="660" y="360" width="80" height="80" as="geometry" />
        </mxCell>
        <mxCell id="hYyw0Vd0KBYQ9iKZKlPS-19" value="商品服务&lt;br&gt;8080" style="ellipse;whiteSpace=wrap;html=1;aspect=fixed;" vertex="1" parent="1">
          <mxGeometry x="530" y="480" width="80" height="80" as="geometry" />
        </mxCell>
        <mxCell id="hYyw0Vd0KBYQ9iKZKlPS-20" value="订单服务&lt;br&gt;8080" style="ellipse;whiteSpace=wrap;html=1;aspect=fixed;" vertex="1" parent="1">
          <mxGeometry x="660" y="480" width="80" height="80" as="geometry" />
        </mxCell>
        <mxCell id="hYyw0Vd0KBYQ9iKZKlPS-22" value="container" style="text;html=1;align=center;verticalAlign=middle;whiteSpace=wrap;rounded=0;" vertex="1" parent="1">
          <mxGeometry x="50" y="340" width="60" height="30" as="geometry" />
        </mxCell>
        <mxCell id="hYyw0Vd0KBYQ9iKZKlPS-23" value="container" style="text;html=1;align=center;verticalAlign=middle;whiteSpace=wrap;rounded=0;" vertex="1" parent="1">
          <mxGeometry x="160" y="340" width="60" height="30" as="geometry" />
        </mxCell>
        <mxCell id="hYyw0Vd0KBYQ9iKZKlPS-24" value="dev.wuxin.com -&amp;gt; gateway_dev:8080&lt;br&gt;test.wuxin.com -&amp;gt; gateway_test:8080" style="text;html=1;align=center;verticalAlign=middle;whiteSpace=wrap;rounded=0;" vertex="1" parent="1">
          <mxGeometry x="460" y="160" width="280" height="80" as="geometry" />
        </mxCell>
      </root>
    </mxGraphModel>
  </diagram>
</mxfile>
